# xmcd
#
# Track frame offsets: 
#        150
#        17066
#        28178
#        43638
#        56770
#        71169
#        79075
#        92884
#        100535
#        110998
#        123314
#        131011
#        159532
#        170898
#        184715
#        197135
#        207996
#        221476
#        231811
#        245060
#        262704
#        272751
#        287503
#        302693
#        315928
#        334525
#
# Disc length: 4687 seconds
#
# Revision: 1
# Processed by: cddbd v1.5.2PL0 Copyright (c) Steve Scherf et al.
# Submitted via: ExactAudioCopy v0.99pb4
#
DISCID=7b124d1a
DTITLE=Michal Tucny - Best of 2 Disc 1
DYEAR=2007
DGENRE=Country
TTITLE0=Az prijde ten den (Together Again)
TTITLE1=Waterloo
TTITLE2=Cervena reka (Red River)
TTITLE3=Jen tohle chci ti rict (Up To My Neck In High Muddy Waters)
TTITLE4=Drnova chajda (Little Old Sod Shanty)
TTITLE5=Lodni zvon zvoni (I Saw The Light)
TTITLE6=Necekej uz dal (Ribbon Of Darkness)
TTITLE7=Slapej dal (I Got Stripes)
TTITLE8=Oci pali a silnice je jak klin cernej (My Baby Left Me)
TTITLE9=Michaluv song (Year That Clayton Delaney Died)
TTITLE10=Vlak v 0,5 (Cocaine Blues)
TTITLE11=Feleena z El Pasa (Feleena From El Paso)
TTITLE12=Zpivam pisne vetru z hor (Any Old Wind That Blows)
TTITLE13=Slida (Jody And The Kid)
TTITLE14=Kousek lasky (Good Christian Soldier)
TTITLE15=Nadrazi
TTITLE16=Prodavac (Auctioneer)
TTITLE17=Sta pisen (Rocket To Stardom)
TTITLE18=Tak uz nefnukej (Driving My Life Away)
TTITLE19=Prazdny nadrazi
TTITLE20=Delame co muzem
TTITLE21=Spim v obili (Gone To Alabama)
TTITLE22=Dvojnici
TTITLE23=Je to zvlastni
TTITLE24=Osada u tri klad
TTITLE25=Stastne slunce (That Lucky Old Sun)
EXTD=YEAR: 2007
EXTT0=
EXTT1=
EXTT2=
EXTT3=
EXTT4=
EXTT5=
EXTT6=
EXTT7=
EXTT8=
EXTT9=
EXTT10=
EXTT11=
EXTT12=
EXTT13=
EXTT14=
EXTT15=
EXTT16=
EXTT17=
EXTT18=
EXTT19=
EXTT20=
EXTT21=
EXTT22=
EXTT23=
EXTT24=
EXTT25=
PLAYORDER=
